# xmcd
#
# Track frame offsets: 
#        150
#        13979
#        27539
#        41024
#        54003
#        66592
#        79078
#        91832
#        102866
#        115881
#        129542
#        142581
#        155722
#        168277
#        181956
#        195225
#        208400
#        220670
#        239243
#        250633
#        262955
#        275123
#
# Disc length: 3839 seconds
#
# Revision: 0
# Processed by: cddbd v1.5.2PL0 Copyright (c) Steve Scherf et al.
# Submitted via: ExactAudioCopy v1.1
#
DISCID=3c0efd16
DTITLE=Various Artist - 60 Jaar Eurovisie Songfestival - CD 4
DYEAR=2015
DGENRE=Eurovision
TTITLE0=Sandra Kim - J'Aime La Vie
TTITLE1=Kate Ryan - Je T'Adore
TTITLE2=Liliane Saint-Pierre - Soldiers Of Love
TTITLE3=Lisa Del Bo - Liefde Is Een Kaartspel
TTITLE4=Nicole and Hugo - Goeiemorgen, Morgen
TTITLE5=Louis Neefs - Jennifer Jennings
TTITLE6=Pierre Rapsat - Judy and Cie
TTITLE7=Tonia - Un Peu De Poivre, Un Peu De Sel
TTITLE8=Stella - Si Tu Aimes Ma Musique
TTITLE9=Dream Express - A Million In 1, 2, 3
TTITLE10=Emly Starr - Samson
TTITLE11=Ingeborg - Door De Wind
TTITLE12=Clouseau - Geef Het Op
TTITLE13=Ann Christy - Gelukkig Zijn
TTITLE14=Vanessa Chinitor - Like The Wind
TTITLE15=Xandee - 1 Life
TTITLE16=Sergio and The Ladies - Sister
TTITLE17=Urban Trad - Sanomi
TTITLE18=Ishtar - O Julissi Na Jalini
TTITLE19=Pas De Deux - Rendez-Vous
TTITLE20=Telex - Euro-Vision
TTITLE21=Loïc Nottet - Rhythm Inside
EXTD=
EXTT0=
EXTT1=
EXTT2=
EXTT3=
EXTT4=
EXTT5=
EXTT6=
EXTT7=
EXTT8=
EXTT9=
EXTT10=
EXTT11=
EXTT12=
EXTT13=
EXTT14=
EXTT15=
EXTT16=
EXTT17=
EXTT18=
EXTT19=
EXTT20=
EXTT21=
PLAYORDER=
